PathFileType	4	(X/Y/Z)	C:/Users/opensim2020/Desktop/walking_exp_matlab/subject01_walking10_straight_04.trc																																																																																																																															
DataRate	CameraRate	NumFrames	NumMarkers	Units	OrigDataRate	OrigDataStartFrame	OrigNumFrames																																																																																																																											
100	100	6	43	mm	100	4061	274																																																																																																																											
Frame#	Time	LFHD			RFHD			LBHD			RBHD			C7			T10			CLAV			STRN			RBAK			LSHO			LUPA			LELB			LFRM			LWRA			LWRB			LFIN			RSHO			RUPA			RELB			RFRM			RWRA			RWRB			RFIN			LASI			RASI			LPSI			RPSI			LTHI			LKNE			LTIB			LANK			LHEE			LTOE			RTHI			RKNE			RTIB			RANK			RHEE			RTOE			*39			*40			*41			*42		
		X1	Y1	Z1	X2	Y2	Z2	X3	Y3	Z3	X4	Y4	Z4	X5	Y5	Z5	X6	Y6	Z6	X7	Y7	Z7	X8	Y8	Z8	X9	Y9	Z9	X10	Y10	Z10	X11	Y11	Z11	X12	Y12	Z12	X13	Y13	Z13	X14	Y14	Z14	X15	Y15	Z15	X16	Y16	Z16	X17	Y17	Z17	X18	Y18	Z18	X19	Y19	Z19	X20	Y20	Z20	X21	Y21	Z21	X22	Y22	Z22	X23	Y23	Z23	X24	Y24	Z24	X25	Y25	Z25	X26	Y26	Z26	X27	Y27	Z27	X28	Y28	Z28	X29	Y29	Z29	X30	Y30	Z30	X31	Y31	Z31	X32	Y32	Z32	X33	Y33	Z33	X34	Y34	Z34	X35	Y35	Z35	X36	Y36	Z36	X37	Y37	Z37	X38	Y38	Z38	X39	Y39	Z39	X40	Y40	Z40	X41	Y41	Z41	X42	Y42	Z42	X43	Y43	Z43
																																																																																																																																		
240	2.39	632.84814	1647.84839	988.16107	685.67065	1651.6604	1089.20288	520.79315	1623.6759	1040.64612	574.36511	1628.01709	1148.08313	475.70187	1416.56543	1083.30078	443.68463	1124.07397	1091.99731	622.96936	1354.24036	1067.53442	665.12872	1198.91333	1065.1217	432.75394	1224.54968	1170.89539	542.55371	1381.22034	913.09619	494.2637	1195.64063	837.79272	468.28156	1048.84045	846.57037	485.55173	936.98798	820.85748	543.20813	808.66821	837.4798	487.56061	814.30676	814.56476	520.229	734.22736	809.0882	573.94611	1384.58936	1224.03198	543.84796	1187.14978	1340.00549	559.388	1063.27954	1353.02332	614.5014	953.65698	1379.71936	711.36194	853.0188	1344.28906	678.33215	847.99957	1393.1394	721.68231	771.36505	1374.79639	623.27991	920.53009	980.72516	617.46185	915.45258	1199.90442	434.2424	930.21918	1025.40515	431.5715	937.08142	1169.89258	656.0647	601.20917	919.76855	678.86438	470.84128	937.11273	673.39276	282.07208	930.08289	717.24939	66.67617	976.76483	683.61194	33.12346	1035.2511	864.40759	47.9217	962.88965	503.34189	590.66144	1246.7345	474.82816	431.67014	1221.53003	367.80737	289.99664	1226.61133	273.92654	103.97736	1177.27649	215.51259	82.61697	1127.83459	399.14514	33.7179	1167.27661	672.76819	1686.73584	1069.80151	-1972.91711	1024.09241	3102.55811	NaN	NaN	NaN	NaN	NaN	NaN
241	2.4	640.20923	1647.61914	985.08069	693.10303	1651.93506	1085.99072	528.28424	1623.61621	1037.72131	581.9375	1628.43994	1145.09875	483.37375	1416.63513	1080.83521	452.21085	1123.80859	1090.09167	630.6134	1354.37659	1065.37488	673.25562	1199.11511	1063.20947	440.73126	1224.19397	1168.37964	550.1319	1380.46924	910.77979	502.56085	1194.6012	835.75519	477.22568	1047.62622	844.67743	494.93893	935.79822	819.02252	553.15161	807.71124	835.87982	497.33347	813.07214	812.77356	530.46588	733.1897	807.52313	581.38947	1384.72449	1221.86511	550.78931	1187.37805	1337.76135	565.57629	1063.3175	1350.71521	619.87256	953.32581	1377.64893	716.42999	852.20032	1342.90381	683.0744	847.15588	1391.39807	726.39276	770.86951	1373.76233	632.53125	920.64435	979.39471	626.18884	915.21112	1198.44421	443.18686	930.64313	1023.58466	440.56787	936.69281	1168.08704	663.99994	601.44611	918.41229	687.11511	471.65619	936.13068	681.354	282.72592	928.78009	720.4104	66.46603	976.17151	685.15698	34.06949	1034.39343	866.80139	43.55241	963.33978	511.83765	590.55518	1245.50317	482.93741	431.38644	1220.89929	373.22983	291.76199	1226.16797	276.08664	107.09038	1177.79285	217.42831	87.02813	1128.11633	399.44168	33.68427	1167.45496	680.22711	1686.98083	1066.40588	-1972.99841	1024.03906	3102.43335	-2012.97766	1022.25061	3138.56885	NaN	NaN	NaN
242	2.41	647.64862	1647.45581	981.88507	700.65674	1652.203	1082.82959	535.92407	1623.69434	1035.02783	589.55817	1628.89758	1142.06702	490.97339	1416.91748	1078.42139	460.68533	1123.64038	1088.23303	638.31116	1354.60266	1063.22766	681.54877	1199.59399	1061.20129	448.72241	1224.16626	1166.02026	557.63153	1379.94385	908.54718	510.91208	1193.76111	833.76379	486.4902	1046.63232	842.70825	504.61963	934.8634	817.11841	563.36407	807.08765	834.14075	507.63074	812.19751	811.14105	541.00159	732.41931	805.81183	588.99133	1385.06812	1219.61865	557.75262	1187.7981	1335.37952	571.75824	1063.74634	1348.28809	625.14374	953.33087	1375.52747	721.21326	851.58368	1341.45056	687.49292	846.8584	1389.72656	730.77679	770.57532	1372.8158	641.79999	921.15857	977.85364	634.99353	915.13843	1196.85974	452.17221	931.32715	1022.00122	449.43002	936.4845	1166.53601	672.04132	601.81476	916.92767	695.54633	472.39417	935.25629	689.45728	283.32855	926.7876	722.30371	66.17312	976.19012	686.20734	34.72267	1034.00171	868.18402	40.27414	963.24542	520.84625	590.76202	1244.81885	491.6554	431.19861	1220.46619	379.05484	293.84177	1225.76575	278.66119	110.55956	1178.29675	219.66768	91.76008	1128.58997	399.85568	33.64998	1167.69543	687.93372	1687.28381	1062.97876	-1972.97253	1023.92938	3102.50244	-2012.97327	1023.11829	3138.48853	NaN	NaN	NaN
243	2.42	655.08813	1647.46716	978.77124	708.24713	1652.63013	1079.5072	543.30487	1623.63208	1031.99414	597.26263	1629.38879	1139.03552	498.74246	1417.18408	1076.02222	469.0845	1123.67871	1086.38672	646.04578	1354.93774	1060.97473	689.96252	1200.21033	1059.26013	456.71597	1224.20361	1163.66406	565.0199	1379.6239	906.36285	519.37146	1193.10522	831.72638	495.66867	1045.89478	840.5863	514.53503	934.18091	815.11963	573.85431	806.68481	832.32178	518.20801	811.54907	809.00189	551.97095	731.95935	803.92505	596.55603	1385.55078	1217.43176	564.70636	1188.46448	1332.97888	577.95697	1064.24243	1345.81226	630.24268	953.53601	1373.3324	725.71918	851.19617	1339.89465	691.55792	846.54346	1387.87805	735.05157	770.41461	1371.80945	650.92206	921.90924	976.20703	643.8205	915.23151	1195.12354	461.00171	932.1499	1020.48969	458.07233	936.50513	1165.07642	680.25977	602.40985	915.5213	704.03467	472.79434	934.49207	696.73444	283.52701	924.62177	723.25836	66.14757	976.23932	687.06555	35.15392	1033.88367	869.22791	38.25644	962.7757	530.2829	590.74158	1243.40076	501.06039	431.14996	1220.13062	385.17151	296.31131	1225.45361	281.54718	114.48012	1178.69214	222.55844	97.35838	1129.00671	400.24869	33.67669	1167.94568	695.57904	1687.66626	1059.56921	-1973.14001	1024.04663	3102.10962	NaN	NaN	NaN	NaN	NaN	NaN
244	2.43	662.60004	1647.50293	975.73083	715.96039	1653.1554	1076.3175	550.94476	1623.88977	1029.20044	605.07794	1630.02466	1136.16003	506.43033	1417.32886	1073.68738	477.46832	1123.89441	1084.52539	653.95605	1355.55811	1058.83936	698.29828	1200.99268	1057.26624	464.75409	1224.40271	1161.38428	572.35468	1379.46497	904.25458	527.89099	1192.63867	829.71436	504.7919	1045.31836	838.42914	524.67419	933.77881	813.03308	584.53815	806.55096	830.42035	528.8316	811.12189	806.89227	563.28516	731.6535	801.93091	604.1864	1386.24634	1215.22156	571.5813	1189.38062	1330.7854	584.01648	1065.13525	1343.55078	635.23126	953.94043	1371.17725	730.164	850.83893	1338.41528	695.73785	846.56812	1386.0448	739.03448	770.38544	1370.94617	659.81952	922.81342	974.42474	652.76129	915.45154	1193.17798	469.82462	933.0249	1018.89716	467.36316	936.92749	1163.47339	688.79858	602.98749	914.1015	712.37012	472.86038	933.85309	702.9928	283.30807	922.78845	725.18457	66.41917	976.24695	687.64044	35.57068	1033.72144	870.68384	36.41323	962.90668	540.35089	591.11877	1242.03369	511.31216	431.15948	1219.77002	392.02475	298.97055	1225.12061	284.91089	118.94426	1179.58362	225.99004	103.46786	1129.55493	400.69363	33.74452	1168.25037	703.13306	1688.05408	1056.33264	-1972.90613	1023.96033	3102.65112	-2013.05054	1022.0517	3138.72461	NaN	NaN	NaN
245	2.44	670.28137	1647.88232	972.67554	723.81171	1653.76282	1073.198	558.88458	1624.32458	1026.55042	612.99579	1630.7467	1133.22144	513.88617	1417.85645	1071.77527	485.75089	1124.26868	1082.68481	661.11249	1355.97681	1056.5592	706.65204	1201.86377	1055.36426	472.83563	1224.78015	1159.22852	579.66156	1379.47998	902.08105	536.3302	1192.35571	827.69678	514.39758	1045.06738	836.2196	535.03961	933.54169	810.91473	595.46985	806.57587	828.49329	540.02466	810.94916	804.82336	574.66193	731.68304	799.75256	611.7146	1387.18677	1213.22998	578.43134	1190.41394	1328.44446	589.96466	1066.17822	1341.18237	640.20276	954.64246	1368.92188	734.39771	850.70581	1336.84875	699.41296	846.56824	1384.47034	742.76715	770.57477	1369.95325	668.52338	923.70654	972.47186	661.58594	915.95972	1191.0249	478.54871	933.93457	1017.30981	476.31339	937.33936	1161.90247	697.48279	603.49066	912.77234	720.3891	472.78076	933.1449	708.26392	283.0329	921.32922	726.45349	66.25691	976.38861	688.0451	35.83028	1033.5155	872.09186	35.49623	963.68024	550.83118	591.50952	1241.3103	522.66559	431.04276	1219.70447	399.89749	301.82437	1224.74109	288.96613	123.90082	1180.35913	230.06938	110.61329	1130.06396	401.46024	33.77304	1168.4845	710.80499	1688.5376	1053.07031	-1973.0719	1024.12781	3102.20166	-2013.12268	1022.07916	3138.55396	NaN	NaN	NaN
